<?xml version="1.0" encoding="UTF-8" standalone="no"?>
<!DOCTYPE svg PUBLIC "-//W3C//DTD SVG 1.1//EN" "http://www.w3.org/Graphics/SVG/1.1/DTD/svg11.dtd">
<svg xmlns="http://www.w3.org/2000/svg" xmlns:xlink="http://www.w3.org/1999/xlink" version="1.1" width="595.0001pt" height="841pt" viewBox="0 0 595.0001 841">
<g enable-background="new">
<g id="Layer-1" data-name="Слой 1">
<path transform="matrix(1,0,0,-1,0,841)" stroke-width="4" stroke-linecap="butt" stroke-miterlimit="22.925585" stroke-linejoin="miter" fill="none" stroke="#3c2213" d="M 297.938 514.6957 C 349.5753 514.6957 391.4357 472.8353 391.4357 421.1983 C 391.4357 369.561 349.5753 327.7003 297.938 327.7003 C 246.3007 327.7003 204.4403 369.561 204.4403 421.1983 C 204.4403 472.8353 246.3007 514.6957 297.938 514.6957 Z "/>
<path transform="matrix(1,0,0,-1,0,841)" d="M 297.938 511.4169 C 347.7645 511.4169 388.1568 471.0249 388.1568 421.1983 C 388.1568 371.3715 347.7645 330.9792 297.938 330.9792 C 248.1114 330.9792 207.7191 371.3715 207.7191 421.1983 C 207.7191 471.0249 248.1114 511.4169 297.938 511.4169 Z " fill="#fbd6c3" fill-rule="evenodd"/>
<path transform="matrix(1,0,0,-1,0,841)" stroke-width="2.4999" stroke-linecap="butt" stroke-miterlimit="22.925585" stroke-linejoin="miter" fill="none" stroke="#fdca99" d="M 297.938 511.4169 C 347.7645 511.4169 388.1568 471.0249 388.1568 421.1983 C 388.1568 371.3715 347.7645 330.9792 297.938 330.9792 C 248.1114 330.9792 207.7191 371.3715 207.7191 421.1983 C 207.7191 471.0249 248.1114 511.4169 297.938 511.4169 Z "/>
<path transform="matrix(1,0,0,-1,0,841)" d="M 297.7826 494.3611 C 338.4369 494.3611 371.3936 461.4041 371.3936 420.7501 C 371.3936 380.0959 338.4369 347.1395 297.7826 347.1395 C 257.1287 347.1395 224.172 380.0959 224.172 420.7501 C 224.172 461.4041 257.1287 494.3611 297.7826 494.3611 Z " fill="#ffbe88" fill-rule="evenodd"/>
<path transform="matrix(1,0,0,-1,0,841)" stroke-width="2.4999" stroke-linecap="butt" stroke-miterlimit="22.925585" stroke-linejoin="miter" fill="none" stroke="#fdca99" d="M 297.7826 494.3611 C 338.4369 494.3611 371.3936 461.4041 371.3936 420.7501 C 371.3936 380.0959 338.4369 347.1395 297.7826 347.1395 C 257.1287 347.1395 224.172 380.0959 224.172 420.7501 C 224.172 461.4041 257.1287 494.3611 297.7826 494.3611 Z "/>
<path transform="matrix(1,0,0,-1,0,841)" stroke-width="5" stroke-linecap="butt" stroke-miterlimit="22.925585" stroke-linejoin="miter" fill="none" stroke="#3c2213" d="M 297.7231 491.4884 C 336.5433 491.4884 368.0135 460.0185 368.0135 421.1983 C 368.0135 382.3775 336.5433 350.9076 297.7231 350.9076 C 258.9026 350.9076 227.4324 382.3775 227.4324 421.1983 C 227.4324 460.0185 258.9026 491.4884 297.7231 491.4884 Z "/>
<path transform="matrix(1,0,0,-1,0,841)" d="M 273.9926 459.4241 C 272.3715 458.7228 271.4411 458.1522 270.3637 456.77 C 269.5586 455.7368 269.4591 455.0766 269.0544 453.9764 C 268.9373 453.659 268.1493 453.1309 267.8451 452.8321 L 266.6358 451.6226 C 266.4434 451.3989 266.3484 451.2589 266.1364 451.0412 C 265.6015 450.491 265.1686 449.538 264.4747 449.1663 C 264.4818 449.352 264.4588 449.4733 264.4656 449.6899 L 264.4461 451.4511 C 264.4458 451.527 264.4407 451.6277 264.4464 451.7104 C 264.46 451.9128 264.4288 451.842 264.5186 452.0064 C 264.5725 452.1059 264.7911 452.3326 264.8871 452.4452 C 266.0168 453.7692 266.6585 455.9471 265.8356 457.8491 C 265.4079 458.8379 264.8979 459.5987 264.1479 460.3105 C 263.9288 460.518 263.8114 460.5542 263.628 460.802 C 263.1674 460.59 262.7668 459.6746 262.5985 459.1962 L 262.2787 458.024 C 261.9995 456.3981 262.3796 454.4087 263.446 452.9636 C 263.9526 452.2774 264.1195 452.3202 264.1408 451.442 C 264.1479 451.1497 264.1771 450.9011 264.172 450.5854 C 264.1671 450.2665 264.1833 450.0624 264.1788 449.7384 C 264.1751 449.4849 264.168 449.6389 264.1898 449.3441 C 264.1983 449.2259 264.2227 449.0263 264.2204 448.8778 C 264.2136 448.38 263.7247 447.9197 263.4486 447.4947 L 261.271 443.2921 C 261.1148 442.8964 260.8877 442.0585 260.6987 441.7654 C 260.5734 441.8736 259.9194 443.0531 259.7927 443.2629 C 259.4384 443.8483 259.6527 444.2213 259.7579 444.8007 C 259.9659 445.9467 260.2494 447.279 260.0484 448.5166 C 260.0062 448.7771 259.854 449.1315 259.7757 449.4093 C 259.6808 449.7452 259.1099 450.686 258.8899 450.9709 C 258.2218 451.8366 257.2509 452.6184 256.7132 453.3452 C 256.3529 453.1521 256.4507 452.831 256.2579 452.0316 C 255.7548 449.9473 255.4194 449.0229 256.3875 446.7847 C 256.8195 445.7866 257.6358 445.0391 258.4295 444.3982 C 258.55 444.3007 258.6334 444.2448 258.7774 444.1286 C 259.4055 443.6186 259.5234 443.3117 259.8661 442.614 C 260.7939 440.7245 260.6372 441.6746 260.0541 439.2281 C 259.7964 438.1466 259.7202 437.0128 259.573 435.9115 C 259.5101 435.4401 259.3213 434.6663 259.401 434.226 C 259.0319 434.1713 258.7212 434.5333 258.4366 434.7425 C 256.8815 435.8857 257.7421 435.6935 257.5834 437.8689 C 257.3855 440.5805 256.0147 442.9599 253.6554 444.3143 C 253.2932 444.5218 252.8617 444.8531 252.4141 444.7871 C 252.3943 444.2851 252.7075 443.3598 252.851 442.7955 C 253.4868 440.2967 254.6223 438.2773 256.2939 436.3835 C 256.4351 436.2236 256.4643 436.1732 256.6023 436.0139 C 256.7307 435.8662 256.7971 435.8197 256.9674 435.6244 C 257.1599 435.4038 257.1347 435.4172 257.3331 435.2357 C 257.4978 435.0858 257.5789 435.0141 257.7169 434.893 C 257.8289 434.795 257.9253 434.6935 258.0511 434.5892 L 259.3015 433.8111 L 259.0517 431.3772 C 259.3332 431.3254 259.5509 431.2803 259.8483 431.2568 C 259.9781 431.9629 260.352 434.2484 260.2397 434.8684 C 260.7106 435.0268 261.5377 435.1348 262.4882 435.462 C 263.1793 435.6995 263.9494 435.7287 264.7429 436.072 C 267.2402 437.1523 268.7754 439.1189 269.21 441.576 C 269.2809 441.9763 269.4189 442.226 269.2392 442.6685 C 267.385 442.3323 266.0306 442.0259 264.5997 440.6746 C 264.077 440.1808 263.7405 439.7494 263.3865 439.2071 C 262.8641 438.4069 262.0925 436.7684 262.2773 435.7497 C 261.6775 435.4903 260.9918 435.4138 260.3733 435.2049 C 260.2641 435.8066 260.5056 436.981 260.5918 437.5862 L 261.2911 441.0111 C 261.3917 441.438 261.4989 441.6934 261.608 442.1191 C 261.6687 442.3561 261.7132 442.4182 261.7897 442.6316 C 261.8799 442.8833 261.8649 442.9636 261.9536 443.2161 C 262.5528 444.9195 262.2146 444.0475 265.0938 444.6638 C 265.6519 444.7828 266.3887 445.1479 266.9803 445.1635 C 269.3908 445.227 271.0553 445.7509 272.3627 447.9253 C 272.5886 448.3006 272.8451 448.9869 272.9557 449.4438 C 273.0546 449.8534 273.1921 450.7075 273.0002 451.1798 C 270.7211 450.7668 269.6306 450.6783 267.9866 448.8795 C 267.7725 448.6453 267.626 448.4866 267.459 448.2439 C 267.0015 447.5801 266.6735 446.8689 266.4938 446.0939 C 266.4011 445.6945 266.4343 445.4558 266.0573 445.2928 C 265 444.8353 263.5387 444.6094 262.6957 444.676 C 262.6517 444.973 262.7804 445.1854 262.9012 445.4388 C 263.7604 447.2374 264.8339 449.0076 266.118 450.5287 C 266.3124 450.7588 266.4839 450.9567 266.6925 451.2104 C 267.1362 451.7495 268.7658 453.6652 269.3109 453.6859 C 271.1446 453.7551 271.3518 453.6298 273.1799 454.4203 C 275.0009 455.2084 275.9023 456.645 276.5373 458.221 C 276.677 458.568 276.9517 459.4637 276.8839 459.8374 C 276.1982 459.9635 274.6117 459.6917 273.9926 459.4241 " fill="#3c2213" fill-rule="evenodd"/>
<path transform="matrix(1,0,0,-1,0,841)" d="M 330.0849 459.4241 C 331.706 458.7228 332.6363 458.1522 333.7138 456.77 C 334.5188 455.7368 334.6183 455.0766 335.0231 453.9764 C 335.1399 453.659 335.9282 453.1309 336.2323 452.8321 L 337.4416 451.6226 C 337.6341 451.3989 337.7288 451.2589 337.9411 451.0412 C 338.476 450.491 338.9088 449.538 339.6027 449.1663 C 339.5957 449.352 339.6186 449.4733 339.6118 449.6899 L 339.6314 451.4511 C 339.6317 451.527 339.6368 451.6277 339.6311 451.7104 C 339.6172 451.9128 339.6487 451.842 339.5588 452.0064 C 339.5047 452.1059 339.2861 452.3326 339.1903 452.4452 C 338.0607 453.7692 337.4189 455.9471 338.2418 457.8491 C 338.6696 458.8379 339.1792 459.5987 339.9296 460.3105 C 340.1487 460.518 340.266 460.5542 340.4492 460.802 C 340.9101 460.59 341.3106 459.6746 341.479 459.1962 L 341.7985 458.024 C 342.0777 456.3981 341.6975 454.4087 340.6314 452.9636 C 340.1246 452.2774 339.9579 452.3202 339.9367 451.442 C 339.9296 451.1497 339.9004 450.9011 339.9052 450.5854 C 339.9103 450.2665 339.8941 450.0624 339.8987 449.7384 C 339.9024 449.4849 339.9092 449.6389 339.8876 449.3441 C 339.8788 449.2259 339.8547 449.0263 339.8567 448.8778 C 339.8638 448.38 340.3528 447.9197 340.6289 447.4947 L 342.8065 443.2921 C 342.9624 442.8964 343.1897 442.0585 343.3788 441.7654 C 343.5038 441.8736 344.158 443.0531 344.2847 443.2629 C 344.6391 443.8483 344.4248 444.2213 344.3196 444.8007 C 344.1115 445.9467 343.8281 447.279 344.029 448.5166 C 344.0713 448.7771 344.2235 449.1315 344.3017 449.4093 C 344.3964 449.7452 344.9676 450.686 345.1876 450.9709 C 345.8557 451.8366 346.8266 452.6184 347.3643 453.3452 C 347.7246 453.1521 347.6265 452.831 347.8195 452.0316 C 348.3227 449.9473 348.6577 449.0229 347.6897 446.7847 C 347.258 445.7866 346.4416 445.0391 345.6479 444.3982 C 345.5274 444.3007 345.4438 444.2448 345.3001 444.1286 C 344.6719 443.6186 344.5537 443.3117 344.2113 442.614 C 343.2832 440.7245 343.4403 441.6746 344.0234 439.2281 C 344.281 438.1466 344.3573 437.0128 344.5044 435.9115 C 344.5673 435.4401 344.7561 434.6663 344.6765 434.226 C 345.0453 434.1713 345.3559 434.5333 345.6408 434.7425 C 347.1959 435.8857 346.3353 435.6935 346.494 437.8689 C 346.6919 440.5805 348.0627 442.9599 350.422 444.3143 C 350.7843 444.5218 351.2154 444.8531 351.6633 444.7871 C 351.6829 444.2851 351.3699 443.3598 351.2262 442.7955 C 350.5907 440.2967 349.4551 438.2773 347.7832 436.3835 C 347.6424 436.2236 347.6132 436.1732 347.4751 436.0139 C 347.3467 435.8662 347.2801 435.8197 347.11 435.6244 C 346.9175 435.4038 346.9425 435.4172 346.7443 435.2357 C 346.5797 435.0858 346.4986 435.0141 346.3605 434.893 C 346.2486 434.795 346.1522 434.6935 346.0263 434.5892 L 344.776 433.8111 L 345.0254 431.3772 C 344.7442 431.3254 344.5262 431.2803 344.2292 431.2568 C 344.0993 431.9629 343.7252 434.2484 343.8377 434.8684 C 343.3669 435.0268 342.5394 435.1348 341.5893 435.462 C 340.8982 435.6995 340.128 435.7287 339.3346 436.072 C 336.837 437.1523 335.3017 439.1189 334.8672 441.576 C 334.7966 441.9763 334.6583 442.226 334.8383 442.6685 C 336.6924 442.3323 338.0468 442.0259 339.4774 440.6746 C 340.0004 440.1808 340.3366 439.7494 340.691 439.2071 C 341.2134 438.4069 341.9847 436.7684 341.8002 435.7497 C 342.4 435.4903 343.0857 435.4138 343.7042 435.2049 C 343.8133 435.8066 343.5718 436.981 343.4856 437.5862 L 342.7863 441.0111 C 342.6857 441.438 342.5786 441.6934 342.4694 442.1191 C 342.4088 442.3561 342.3643 442.4182 342.2877 442.6316 C 342.1973 442.8833 342.2126 442.9636 342.1236 443.2161 C 341.5246 444.9195 341.8625 444.0475 338.9837 444.6638 C 338.4255 444.7828 337.6885 445.1479 337.0969 445.1635 C 334.6866 445.227 333.0221 445.7509 331.7148 447.9253 C 331.4889 448.3006 331.2323 448.9869 331.1218 449.4438 C 331.0226 449.8534 330.8854 450.7075 331.0773 451.1798 C 333.3563 450.7668 334.4468 450.6783 336.0909 448.8795 C 336.3049 448.6453 336.4512 448.4866 336.6181 448.2439 C 337.0759 447.5801 337.4039 446.8689 337.5836 446.0939 C 337.676 445.6945 337.6429 445.4558 338.0202 445.2928 C 339.0775 444.8353 340.5387 444.6094 341.3815 444.676 C 341.4257 444.973 341.297 445.1854 341.176 445.4388 C 340.3171 447.2374 339.2436 449.0076 337.9592 450.5287 C 337.765 450.7588 337.5935 450.9567 337.3846 451.2104 C 336.941 451.7495 335.3117 453.6652 334.7666 453.6859 C 332.9328 453.7551 332.7256 453.6298 330.8975 454.4203 C 329.0766 455.2084 328.1751 456.645 327.5402 458.221 C 327.4004 458.568 327.1258 459.4637 327.1935 459.8374 C 327.8792 459.9635 329.4655 459.6917 330.0849 459.4241 " fill="#3c2213" fill-rule="evenodd"/>
<path transform="matrix(1,0,0,-1,0,841)" stroke-width="4" stroke-linecap="butt" stroke-miterlimit="22.925585" stroke-linejoin="miter" fill="none" stroke="#3c2213" d="M 248.08 374.9732 C 250.9466 380.4111 253.813 385.8491 255.3222 388.7161 C 256.8311 391.5831 256.9822 391.8781 257.0579 396.1698 C 257.1333 400.4612 257.1333 408.7485 257.6514 413.2956 C 258.1693 417.8424 259.2054 418.648 259.7233 419.0508 C 260.2412 419.4536 260.2412 419.4536 265.7662 419.6265 C 271.2912 419.7988 282.3412 420.1444 287.9524 420.2666 C 293.5638 420.3884 293.7365 420.2881 293.8082 419.5256 C 293.8805 418.7631 293.8516 417.3384 293.4703 415.9358 C 293.089 414.5326 292.3551 413.1516 291.0169 411.9503 C 289.679 410.7487 287.7367 409.7271 285.334 409.0224 C 282.9311 408.3168 280.0678 407.9288 277.6578 407.8928 C 275.2478 407.8568 273.2907 408.1734 273.4333 407.6269 C 273.5759 407.0806 275.8178 405.6721 277.6093 404.2406 C 279.4008 402.8085 280.7422 401.3544 281.8587 399.6918 C 282.9753 398.0293 283.8677 396.159 284.544 393.7564 C 285.2201 391.3532 285.6804 388.4185 285.925 385.6989 C 286.1697 382.9793 286.1983 380.4761 285.8207 378.4436 C 285.4431 376.4115 284.6588 374.8501 283.8243 373.6128 C 282.9898 372.3758 282.1051 371.4619 280.9721 370.5012 C 279.8388 369.5409 278.4574 368.534 276.5364 366.5806 C 274.6154 364.6276 272.1543 361.7289 269.6933 358.8296 "/>
<path transform="matrix(1,0,0,-1,0,841)" stroke-width="4" stroke-linecap="butt" stroke-miterlimit="22.925585" stroke-linejoin="miter" fill="none" stroke="#3c2213" d="M 267.8825 419.6923 C 269.1247 423.9865 270.3671 428.2807 271.7076 431.8957 C 273.0481 435.5101 274.4872 438.4451 276.3286 441.093 C 278.1703 443.7403 280.4148 446.1001 282.6306 447.9704 C 284.8465 449.841 287.0334 451.2223 289.0477 451.9704 C 291.062 452.7184 292.9039 452.8338 293.9973 452.4021 C 295.0909 451.9704 295.4361 450.9918 295.2635 449.5533 C 295.0909 448.1144 294.4001 446.2152 293.5945 444.0283 C 292.7886 441.841 291.8679 439.3664 291.1771 436.5748 C 290.4866 433.7836 290.0262 430.6757 290.1016 428.0462 C 290.1773 425.4168 290.7887 423.2662 291.4002 421.115 "/>
<path transform="matrix(1,0,0,-1,0,841)" stroke-width="4" stroke-linecap="butt" stroke-miterlimit="22.925585" stroke-linejoin="miter" fill="none" stroke="#3c2213" d="M 322.0333 412.2128 L 335.9361 412.2128 L 341.1669 412.2128 C 343.351 412.2128 345.138 410.4261 345.138 408.242 C 345.138 406.0579 343.351 404.2704 341.1669 404.2704 L 335.5089 404.2704 L 322.0333 404.2704 C 319.8492 404.2704 318.0626 406.0579 318.0626 408.242 C 318.0626 410.4261 319.8492 412.2128 322.0333 412.2128 Z "/>
<path transform="matrix(1,0,0,-1,0,841)" stroke-width="4" stroke-linecap="butt" stroke-miterlimit="22.925585" stroke-linejoin="miter" fill="none" stroke="#3c2213" d="M 324.2582 402.3505 L 335.1898 402.3505 L 337.0385 402.3505 C 339.2226 402.3505 341.0096 400.5638 341.0096 398.3797 C 341.0096 396.1956 339.2226 394.4083 337.0385 394.4083 L 333.1885 394.4083 L 324.2582 394.4083 C 322.0741 394.4083 320.2869 396.1956 320.2869 398.3797 C 320.2869 400.5638 322.0741 402.3505 324.2582 402.3505 Z "/>
<path transform="matrix(1,0,0,-1,0,841)" stroke-width="4" stroke-linecap="butt" stroke-miterlimit="22.925585" stroke-linejoin="miter" fill="none" stroke="#3c2213" d="M 325.3898 392.1412 L 332.4487 392.1412 L 335.0588 392.1412 C 337.2426 392.1412 339.0296 390.354 339.0296 388.1699 C 339.0296 385.9858 337.2426 384.1991 335.0588 384.1991 L 328.3739 384.1991 L 325.3898 384.1991 C 323.2057 384.1991 321.4185 385.9858 321.4185 388.1699 C 321.4185 390.354 323.2057 392.1412 325.3898 392.1412 Z "/>
<path transform="matrix(1,0,0,-1,0,841)" stroke-width="4" stroke-linecap="butt" stroke-miterlimit="22.925585" stroke-linejoin="miter" fill="none" stroke="#3c2213" d="M 329.3566 421.6204 L 335.1141 421.6204 L 339.0256 421.6204 C 341.2097 421.6204 342.9967 419.8331 342.9967 417.649 C 342.9967 415.4649 341.2097 413.6783 339.0256 413.6783 L 335.8874 413.6783 L 329.3566 413.6783 C 327.1725 413.6783 325.3853 415.4649 325.3853 417.649 C 325.3853 419.8331 327.1725 421.6204 329.3566 421.6204 Z "/>
<path transform="matrix(1,0,0,-1,0,841)" stroke-width="4" stroke-linecap="butt" stroke-miterlimit="22.925585" stroke-linejoin="miter" fill="none" stroke="#3c2213" d="M 328.6247 384.1991 C 320.887 372.1944 309.0912 366.0449 304.4058 366.7819 C 298.8782 367.6513 313.6102 377.3013 313.6192 389.679 C 313.632 406.9604 289.8604 428.586 308.1433 446.9394 "/>
<path transform="matrix(1,0,0,-1,0,841)" stroke-width="6.0001" stroke-linecap="butt" stroke-miterlimit="22.925585" stroke-linejoin="miter" fill="none" stroke="#3c2213" d="M 333.1885 393.3258 C 332.9549 392.6458 332.7072 391.9819 332.4487 391.3291 "/>
<path transform="matrix(1,0,0,-1,0,841)" stroke-width="6.0001" stroke-linecap="butt" stroke-miterlimit="22.925585" stroke-linejoin="miter" fill="none" stroke="#3c2213" d="M 335.5089 403.4582 C 335.4174 402.7158 335.3094 401.9871 335.1898 401.2676 "/>
<path transform="matrix(1,0,0,-1,0,841)" stroke-width="6.0001" stroke-linecap="butt" stroke-miterlimit="22.925585" stroke-linejoin="miter" fill="none" stroke="#3c2213" d="M 335.8874 413.6783 C 335.9151 412.9294 335.9316 412.17 335.9361 411.4006 "/>
<path transform="matrix(1,0,0,-1,0,841)" stroke-width="4" stroke-linecap="butt" stroke-miterlimit="22.925585" stroke-linejoin="miter" fill="none" stroke="#3c2213" d="M 315.866 449.8466 C 325.0239 446.3507 332.6664 436.68 335.1141 421.6204 "/>
<path transform="matrix(1,0,0,-1,0,841)" stroke-width="6.0001" stroke-linecap="butt" stroke-miterlimit="22.925585" stroke-linejoin="miter" fill="none" stroke="#3c2213" d="M 292.9493 413.555 C 294.0299 412.0245 295.1101 410.4944 296.2403 408.4914 C 297.3705 406.489 298.5506 404.0147 299.5002 401.6115 C 300.4498 399.2085 301.1692 396.8779 301.7302 394.1728 C 302.2914 391.468 302.6942 388.3887 302.1619 385.2522 C 301.6295 382.1153 300.162 378.9213 298.1764 376.5614 C 296.1907 374.2019 293.6871 372.6765 291.9606 371.7417 C 290.234 370.8062 289.2844 370.4613 288.4643 370.5041 C 287.644 370.5474 286.9534 370.9789 286.3185 371.6807 C 285.6832 372.3826 285.1036 373.3537 284.5239 374.3254 "/>
<path transform="matrix(1,0,0,-1,0,841)" stroke-width="4" stroke-linecap="butt" stroke-miterlimit="22.925585" stroke-linejoin="miter" fill="none" stroke="#3c2213" d="M 315.866 449.8469 C 315.9666 450.4071 316.067 450.9675 316.563 451.2183 C 317.0594 451.4698 317.9517 451.4122 318.4982 451.9304 C 319.045 452.4483 319.2466 453.5419 319.1457 454.7648 C 319.045 455.9876 318.6422 457.34 317.6203 458.2896 C 316.599 459.2392 314.9589 459.786 310.6134 460.0451 C 306.2684 460.3039 299.2181 460.2756 295.3596 460.4839 C 291.5014 460.6929 290.8346 461.1385 290.1008 461.8434 C 289.3669 462.549 288.5661 463.5128 288.3957 464.6276 C 288.2256 465.7431 288.686 467.0093 289.1608 467.9152 C 289.6356 468.8218 290.1249 469.3689 290.7147 469.6855 C 291.3046 470.0015 291.9951 470.0883 295.808 470.0883 C 299.6209 470.0883 306.5562 470.0015 310.2681 470.0594 C 313.9804 470.1166 314.4696 470.3185 314.9014 470.6203 C 315.3328 470.9225 315.707 471.3253 315.9802 471.9155 C 316.2538 472.5057 316.4264 473.2824 316.4839 474.1311 C 316.5415 474.98 316.4839 475.9007 316.3689 476.6494 C 316.2538 477.3971 316.0811 477.9729 315.8076 478.4766 C 315.5343 478.98 315.1602 479.412 314.6134 479.7281 C 314.0668 480.045 313.3471 480.246 311.5485 480.318 C 309.7502 480.39 306.8725 480.3327 303.9951 480.2749 "/>
<path transform="matrix(1,0,0,-1,0,841)" d="M 317.5089 451.319 C 318.2451 450.5593 318.0917 449.1363 317.2363 448.3477 C 316.3805 447.5591 315.1466 447.7037 314.4104 448.4631 C 313.674 449.2227 313.7134 450.4229 314.5691 451.2115 C 315.4246 452.0001 316.7728 452.0784 317.5089 451.319 " fill="#3c2213" fill-rule="evenodd"/>
<path transform="matrix(1,0,0,-1,0,841)" d="M 309.8109 448.4979 C 310.578 447.7008 310.477 446.3838 309.5853 445.5567 C 308.6938 444.7293 307.3493 444.7046 306.5822 445.5014 C 305.8152 446.2991 305.9161 447.6161 306.8076 448.4435 C 307.6994 449.2706 309.0438 449.2956 309.8109 448.4979 " fill="#3c2213" fill-rule="evenodd"/>
<path transform="matrix(1,0,0,-1,0,841)" d="M 303.7952 482.2824 C 304.8968 482.2824 305.79 481.3855 305.79 480.2783 C 305.79 479.1711 304.8968 478.2739 303.7952 478.2739 C 302.6934 478.2739 301.8002 479.1711 301.8002 480.2783 C 301.8002 481.3855 302.6934 482.2824 303.7952 482.2824 " fill="#3c2213" fill-rule="evenodd"/>
<path transform="matrix(1,0,0,-1,0,841)" d="M 232.0019 479.2788 L 232.7922 478.5936 C 232.5098 478.1883 232.3843 477.8135 232.4117 477.468 C 232.4441 477.123 232.6317 476.7999 232.9804 476.4969 L 238.3637 471.8299 L 238.6443 471.5867 C 238.7441 471.4997 238.8733 471.4376 239.0372 471.4016 C 239.2004 471.3656 239.3597 471.3605 239.5225 471.3863 C 239.6971 471.4123 239.8507 471.4682 239.9848 471.5464 C 240.1214 471.6281 240.2807 471.7619 240.4619 471.9436 L 241.2558 471.255 C 240.2141 470.0531 239.0859 469.1974 237.8781 468.6897 C 236.8142 468.2446 235.7844 468.104 234.7869 468.275 C 233.7894 468.4453 232.8418 468.9167 231.9474 469.6923 C 231.2915 470.2612 230.7923 470.9217 230.4479 471.6703 C 230.1035 472.4189 229.9363 473.2191 229.9439 474.0687 C 229.9533 474.9333 230.129 475.8194 230.4726 476.7321 C 230.8161 477.6454 231.2649 478.4236 231.8202 479.0642 Z M 233.4254 479.3111 L 232.636 479.9957 C 232.933 480.2715 233.1828 480.4826 233.3877 480.6386 C 233.5878 480.7928 233.9674 481.0637 234.523 481.449 C 234.8759 481.6984 235.097 481.873 235.188 481.9776 C 235.3448 482.1588 235.4077 482.343 235.374 482.5332 L 235.3224 482.7892 C 235.2841 482.9559 235.3541 483.1396 235.5299 483.3425 C 235.6758 483.5109 235.8207 483.6064 235.9701 483.639 C 236.1155 483.6677 236.2564 483.6234 236.3902 483.5081 L 239.1083 481.1511 C 239.2795 481.0025 239.3549 480.8375 239.3362 480.659 C 239.3181 480.4807 239.2458 480.3208 239.1219 480.1779 C 238.9927 480.0288 238.8577 479.9407 238.7143 479.9098 C 238.5655 479.8774 238.3934 479.8993 238.1947 479.9764 C 237.7375 480.145 237.3582 480.2516 237.0555 480.2975 C 236.4126 480.3883 235.8128 480.3746 235.2631 480.2573 C 234.8912 480.1793 234.557 480.0637 234.2656 479.9163 C 233.9742 479.7689 233.6941 479.5671 233.4254 479.3111 Z M 241.916 472.0167 L 241.1218 472.7049 C 241.5158 473.2135 241.827 473.8329 242.0597 474.5645 C 242.1808 474.9596 242.2341 475.3633 242.2154 475.7681 C 242.1984 476.172 242.1108 476.5419 241.9583 476.8741 C 241.8707 477.0561 241.8358 477.2143 241.8497 477.3467 C 241.8639 477.4842 241.9313 477.6208 242.0493 477.7569 C 242.1782 477.906 242.3256 477.995 242.4889 478.0256 C 242.6519 478.0565 242.7942 478.0225 242.9121 477.9201 C 243.1077 477.7503 243.2497 477.438 243.3438 476.9847 C 243.4348 476.5275 243.4561 476.0311 243.3983 475.4923 C 243.3305 474.8343 243.1786 474.2274 242.9444 473.675 C 242.7086 473.1242 242.3659 472.5711 241.916 472.0167 Z M 244.7983 489.8962 C 244.531 489.551 244.3842 489.2562 244.3547 489.0081 C 244.3303 488.7607 244.423 488.5002 244.6379 488.2272 L 249.4054 482.1636 C 249.7187 481.765 250.0177 481.5473 250.3003 481.5074 C 250.5331 481.4697 250.8338 481.5488 251.206 481.7475 L 251.7919 481.002 C 250.2961 479.9574 248.802 479.3927 247.3033 479.3083 C 245.3564 479.1969 243.7654 479.9234 242.5297 481.4949 C 241.9112 482.2818 241.5178 483.1223 241.3505 484.0209 C 241.1853 484.9172 241.2527 485.8427 241.5529 486.798 C 241.7825 487.525 242.1167 488.2071 242.5524 488.8346 C 242.985 489.4591 243.544 490.0601 244.2217 490.6304 Z M 245.5906 490.5193 L 245.0137 491.2532 C 245.7283 491.7776 246.4401 492.1758 247.1559 492.4539 C 247.8716 492.7323 248.61 492.8936 249.3706 492.9449 C 251.392 493.077 253.0312 492.3437 254.2904 490.7421 C 255.526 489.1706 255.8602 487.4556 255.2924 485.5898 C 254.8641 484.1515 253.9596 482.8297 252.5842 481.6247 L 251.998 482.3702 C 252.1443 482.5307 252.2492 482.6687 252.309 482.783 C 252.3668 482.8997 252.4034 483.0299 252.419 483.1733 C 252.4484 483.4959 252.3138 483.8431 252.019 484.2181 L 247.2511 490.2817 C 247.062 490.5227 246.8531 490.6655 246.6269 490.716 C 246.4761 490.7509 246.3242 490.7548 246.1731 490.7225 C 246.0237 490.695 245.8318 490.627 245.5906 490.5193 Z M 260.6329 500.3308 L 264.8129 491.0893 C 264.9061 490.883 265.0286 490.7642 265.1814 490.7231 C 265.2656 490.6996 265.3373 490.6933 265.3968 490.7044 C 265.4527 490.7132 265.6434 490.7608 265.9581 490.8385 C 266.347 490.9465 266.5922 490.883 266.6965 490.6522 C 266.7583 490.5156 266.7087 490.3603 266.5511 490.189 C 266.4374 490.0635 266.2152 489.924 265.8821 489.7735 L 265.5 489.6006 L 260.4969 487.338 L 260.2066 487.2061 C 259.935 487.0837 259.7128 487.0253 259.5308 487.0298 C 259.3539 487.0341 259.2349 487.103 259.1768 487.2317 C 259.0798 487.4465 259.1646 487.6563 259.435 487.8624 C 259.6544 488.0293 259.7842 488.13 259.8202 488.1626 C 259.8562 488.1949 259.8846 488.2433 259.9087 488.3122 C 259.9591 488.4352 259.9447 488.5906 259.8622 488.7729 L 256.3024 496.6432 C 256.2199 496.8261 256.1134 496.9395 255.9864 496.9854 C 255.9197 497.0098 255.8631 497.0234 255.8149 497.018 C 255.7681 497.0095 255.606 496.9809 255.3352 496.927 C 255.0019 496.8601 254.7884 496.9344 254.6915 497.1492 C 254.632 497.2808 254.6583 497.4157 254.7723 497.5512 C 254.8888 497.6906 255.0796 497.8191 255.3511 497.9421 L 255.6417 498.073 Z M 261.597 500.7665 L 266.118 502.8114 L 267.3626 500.0593 C 267.4426 499.8818 267.4536 499.7353 267.4006 499.6176 C 267.3445 499.4986 267.2172 499.3926 267.0146 499.3007 C 266.8654 499.2333 266.7382 499.208 266.6248 499.2248 C 266.5168 499.2403 266.3974 499.2999 266.2807 499.405 C 266.053 499.6123 265.7974 499.7812 265.5204 499.9141 C 265.2477 500.0494 264.9623 500.1401 264.6677 500.1911 C 264.2672 500.262 263.8579 500.2705 263.4406 500.2143 C 263.0239 500.1585 262.55 500.0343 262.014 499.8438 Z M 264.1422 495.0162 L 263.7309 495.9252 C 264.1042 496.2722 264.3537 496.5755 264.4826 496.8405 C 264.6091 497.1013 264.6575 497.4009 264.6201 497.7397 C 264.5912 497.9659 264.6062 498.1374 264.6706 498.2598 C 264.7315 498.378 264.8523 498.4778 265.0323 498.5595 C 265.2695 498.6663 265.4631 498.6765 265.6142 498.5867 C 265.6956 498.5393 265.7917 498.3985 265.9008 498.1569 L 267.2546 495.1636 C 267.3675 494.9138 267.4066 494.725 267.3703 494.5924 C 267.336 494.4637 267.2127 494.3494 267.006 494.2565 C 266.834 494.1782 266.6832 494.1556 266.5548 494.1848 C 266.4213 494.2145 266.2889 494.3035 266.1503 494.4472 C 265.8515 494.752 265.5414 494.9476 265.2248 495.0369 C 264.903 495.1276 264.5425 495.1193 264.1422 495.0162 Z M 275.6806 505.7651 L 278.441 496.0052 C 278.5025 495.7875 278.606 495.6517 278.7511 495.5885 C 278.8308 495.5528 278.9011 495.5357 278.9612 495.5377 C 279.0179 495.5386 279.2134 495.5567 279.5363 495.5871 C 279.9369 495.6364 280.1701 495.5369 280.2387 495.2934 C 280.2796 495.1485 280.2076 495.0026 280.0261 494.8569 C 279.8952 494.7494 279.6542 494.6443 279.3027 494.545 L 278.8994 494.4311 L 273.6153 492.9367 L 273.3086 492.8496 C 273.022 492.7689 272.7933 492.7436 272.6144 492.7757 C 272.4401 492.806 272.3329 492.8922 272.2946 493.0279 C 272.2303 493.2544 272.3457 493.4492 272.6433 493.6133 C 272.8851 493.746 273.0285 493.8262 273.0685 493.8525 C 273.109 493.8795 273.1445 493.9228 273.1788 493.9877 C 273.2468 494.102 273.2553 494.2573 273.2012 494.4504 L 270.8501 502.7618 C 270.7957 502.9549 270.707 503.0824 270.5882 503.1471 C 270.5261 503.1814 270.4723 503.2032 270.4238 503.2049 C 270.3762 503.2035 270.2115 503.1995 269.9359 503.1862 C 269.5961 503.1694 269.3965 503.2752 269.3322 503.5017 C 269.293 503.6406 269.339 503.7698 269.4719 503.8872 C 269.6077 504.0077 269.8155 504.1066 270.102 504.1877 L 270.4088 504.2744 Z M 276.6983 506.0529 L 281.4729 507.4036 L 282.2953 504.4966 C 282.348 504.3095 282.3367 504.163 282.2672 504.0544 C 282.1938 503.9453 282.0518 503.8588 281.838 503.7985 C 281.6804 503.754 281.5512 503.7483 281.4415 503.7812 C 281.3369 503.8126 281.2277 503.8892 281.128 504.0108 C 280.9338 504.2494 280.7059 504.4544 280.4522 504.627 C 280.2019 504.8014 279.9332 504.9332 279.6494 505.0276 C 279.2639 505.1568 278.8603 505.2266 278.4399 505.2331 C 278.0192 505.2396 277.5322 505.1874 276.9741 505.0786 Z M 278.3611 499.9878 L 278.0895 500.9482 C 278.5102 501.2357 278.8019 501.499 278.9688 501.7416 C 279.1327 501.9809 279.2251 502.2703 279.2381 502.6105 C 279.2438 502.8384 279.2835 503.0059 279.3654 503.1176 C 279.4439 503.2256 279.578 503.3061 279.7676 503.3597 C 280.0182 503.4302 280.2112 503.4115 280.347 503.3001 C 280.4207 503.2414 280.4947 503.0881 280.567 502.8333 L 281.461 499.6715 C 281.5353 499.4082 281.5464 499.2151 281.4905 499.0893 C 281.4375 498.9674 281.2989 498.873 281.0806 498.8112 C 280.8984 498.7599 280.7459 498.7596 280.6234 498.8075 C 280.4958 498.8568 280.3782 498.9643 280.2623 499.1272 C 280.012 499.4731 279.7347 499.7126 279.4348 499.8481 C 279.1298 499.9853 278.7724 500.0309 278.3611 499.9878 Z M 292.0657 508.371 L 292.9601 496.6226 L 287.4974 496.207 L 287.1794 496.1823 C 286.8823 496.1597 286.6535 496.1806 286.4843 496.2475 C 286.3193 496.3119 286.2312 496.4173 286.2207 496.5585 C 286.2028 496.7935 286.3542 496.9613 286.6788 497.0628 C 286.9421 497.1447 287.0983 497.1949 287.1431 497.2133 C 287.1879 497.2311 287.2315 497.2669 287.278 497.3236 C 287.3673 497.4219 287.4064 497.5727 287.3911 497.7726 L 286.7357 506.3854 C 286.7202 506.5855 286.6589 506.7281 286.5555 506.8145 C 286.5013 506.8607 286.4529 506.8928 286.4055 506.9041 C 286.3585 506.912 286.1966 506.9407 285.9236 506.9823 C 285.5874 507.0334 285.4125 507.1768 285.3947 507.4115 C 285.3836 507.5555 285.4545 507.6729 285.6076 507.7616 C 285.7649 507.8529 285.9883 507.9081 286.285 507.9311 L 286.6031 507.9555 Z M 293.1452 508.4529 L 298.093 508.83 L 298.3252 505.7736 C 298.3391 505.5979 298.2983 505.4678 298.2078 505.381 C 298.1134 505.2943 297.9621 505.2413 297.7481 505.2249 C 297.5686 505.2112 297.4371 505.228 297.3492 505.2713 C 297.2656 505.3184 297.178 505.4179 297.0947 505.5741 C 296.7301 506.2167 296.2355 506.6898 295.6099 506.9937 C 294.9809 507.297 294.186 507.4486 293.2223 507.4432 Z M 293.5729 502.1787 L 293.4969 503.1743 C 293.9573 503.3716 294.2957 503.5742 294.5075 503.7795 C 294.7235 503.9853 294.8715 504.2503 294.9523 504.5751 C 295.0024 504.7977 295.0747 504.9536 295.1773 505.0468 C 295.2754 505.1373 295.4231 505.1894 295.6198 505.2044 C 295.8795 505.2246 296.0646 505.1679 296.1765 505.0312 C 296.2366 504.9592 296.2783 504.7943 296.2984 504.5301 L 296.5479 501.2538 C 296.5686 500.9805 296.5411 500.7898 296.4609 500.6772 C 296.3854 500.5684 296.2301 500.5035 296.0042 500.4862 C 295.816 500.4714 295.6663 500.5018 295.5552 500.5732 C 295.4404 500.6472 295.3466 500.7759 295.2649 500.9581 C 295.0968 501.3471 294.8771 501.6373 294.6013 501.8289 C 294.3295 502.024 293.9839 502.1393 293.5729 502.1787 Z M 294.065 496.7065 L 293.9944 497.6374 C 294.5214 497.7366 294.9545 497.8494 295.2941 497.9784 C 295.6331 498.1105 295.969 498.2924 296.3047 498.5337 C 296.6394 498.7721 296.9036 499.0136 297.0955 499.2585 C 297.2829 499.4994 297.4612 499.8144 297.6214 500.2019 C 297.6953 500.3935 297.7818 500.527 297.8731 500.5984 C 297.9643 500.6735 298.1001 500.7161 298.2716 500.7297 C 298.4978 500.7467 298.6603 500.7115 298.7597 500.6251 C 298.8547 500.5346 298.9134 500.3739 298.9312 500.1389 L 299.1628 497.0945 Z M 309.1723 507.8191 L 307.7062 496.1285 L 302.2707 496.8099 L 301.9544 496.8499 C 301.6587 496.8865 301.4385 496.9531 301.2857 497.0523 C 301.1372 497.1481 301.072 497.2689 301.0893 497.4092 C 301.1187 497.6427 301.3007 497.7774 301.6389 497.812 C 301.9136 497.8397 302.0769 497.8582 302.1239 497.867 C 302.1718 497.8755 302.2214 497.9018 302.2781 497.9486 C 302.385 498.0268 302.4539 498.1669 302.4785 498.3656 L 303.5531 506.9361 C 303.5781 507.1351 303.5463 507.2873 303.4621 507.3931 C 303.4185 507.4492 303.3768 507.4897 303.3332 507.5101 C 303.2889 507.5274 303.1356 507.5884 302.8765 507.6831 C 302.5573 507.8001 302.4142 507.9756 302.4437 508.2092 C 302.4615 508.352 302.5545 508.4532 302.7226 508.5094 C 302.8946 508.5677 303.1243 508.578 303.4202 508.5405 L 303.7365 508.5009 Z M 310.2463 507.6848 L 315.1698 507.0677 L 314.7888 504.0264 C 314.7664 503.8512 314.7007 503.7316 314.5952 503.6649 C 314.4852 503.5983 314.3259 503.5771 314.1139 503.6034 C 313.9347 503.6258 313.8092 503.6683 313.7318 503.7284 C 313.6595 503.7914 313.5932 503.9065 313.5427 504.076 C 313.3137 504.7784 312.9228 505.3402 312.3706 505.7629 C 311.8144 506.1858 311.0661 506.4931 310.1207 506.6799 Z M 309.4146 501.4514 L 309.5388 502.4412 C 310.0294 502.5433 310.4011 502.6742 310.6497 502.8333 C 310.902 502.9914 311.1001 503.2219 311.2438 503.5243 C 311.3376 503.7318 311.4394 503.8705 311.5585 503.9419 C 311.673 504.0108 311.8283 504.0326 312.0239 504.0079 C 312.2821 503.9753 312.4522 503.8829 312.5344 503.7276 C 312.5792 503.6445 312.5869 503.4745 312.5543 503.2117 L 312.1452 499.9516 C 312.1112 499.68 312.046 499.4983 311.9454 499.4042 C 311.8499 499.3121 311.6849 499.2795 311.4598 499.3072 C 311.2724 499.3311 311.1316 499.3906 311.0374 499.4819 C 310.9391 499.5777 310.8733 499.7222 310.8297 499.9175 C 310.7424 500.3323 310.5848 500.6602 310.3526 500.9031 C 310.1253 501.1481 309.8095 501.3303 309.4146 501.4514 Z M 308.806 495.9904 L 308.922 496.9162 C 309.4583 496.9089 309.9053 496.9327 310.2639 496.9916 C 310.6227 497.0534 310.9881 497.1654 311.3649 497.3343 C 311.7407 497.5007 312.0474 497.6853 312.2847 497.8865 C 312.5163 498.0861 312.7538 498.3591 312.9874 498.7066 C 313.0985 498.8795 313.2096 498.9932 313.3137 499.045 C 313.418 499.1006 313.5594 499.1151 313.7304 499.0941 C 313.9554 499.0654 314.1074 498.9991 314.1873 498.8942 C 314.263 498.7871 314.2879 498.6179 314.259 498.3843 L 313.8789 495.3543 Z M 332.9444 501.486 L 332.5147 500.5329 C 332.0453 500.6869 331.6504 500.7005 331.327 500.5749 C 331.0061 500.4454 330.7499 500.1727 330.5599 499.7514 L 327.6306 493.257 L 327.4781 492.9185 C 327.4237 492.7978 327.401 492.656 327.4132 492.4894 C 327.4251 492.3224 327.4665 492.1685 327.5376 492.0197 C 327.6128 491.8601 327.7103 491.7285 327.8237 491.6225 C 327.941 491.5151 328.1151 491.4009 328.341 491.2792 L 327.9087 490.3211 C 326.4588 490.9754 325.3156 491.8107 324.483 492.8224 C 323.7523 493.7139 323.3222 494.6607 323.2001 495.6656 C 323.0776 496.6699 323.2576 497.7128 323.744 498.7916 C 324.1015 499.5833 324.5907 500.2503 325.2095 500.7951 C 325.8283 501.3397 326.5475 501.7292 327.363 501.9656 C 328.1939 502.2043 329.0936 502.2896 330.0667 502.2215 C 331.0401 502.1544 331.9138 501.9474 332.6865 501.5991 Z M 333.3832 500.1316 L 333.813 501.0846 C 334.1625 500.8788 334.4366 500.7002 334.6444 500.5483 C 334.8496 500.4009 335.2181 500.1146 335.7459 499.6928 C 336.0864 499.4263 336.3171 499.2642 336.4432 499.2072 C 336.6615 499.1085 336.8563 499.1012 337.0289 499.1885 L 337.2593 499.3104 C 337.4079 499.3951 337.604 499.3809 337.8489 499.2707 C 338.0519 499.1791 338.1851 499.0671 338.2591 498.9339 C 338.3283 498.8027 338.3263 498.655 338.2537 498.494 L 336.7746 495.2143 C 336.6814 495.0077 336.5447 494.8886 336.3681 494.8549 C 336.1924 494.8211 336.018 494.8447 335.8463 494.9223 C 335.6666 495.0037 335.5432 495.1074 335.4721 495.2361 C 335.399 495.3694 335.3703 495.5409 335.3871 495.7529 C 335.418 496.2399 335.4114 496.633 335.3686 496.9363 C 335.2711 497.5784 335.0866 498.1493 334.8164 498.6422 C 334.6353 498.9762 334.4284 499.263 334.2039 499.5003 C 333.9791 499.7373 333.7058 499.9479 333.3832 500.1316 Z M 328.8271 489.907 L 329.2594 490.8648 C 329.8595 490.6332 330.5418 490.5128 331.3097 490.4991 C 331.723 490.4969 332.1247 490.5612 332.5076 490.695 C 332.8894 490.8268 333.2188 491.017 333.4938 491.2586 C 333.6429 491.3943 333.7838 491.4729 333.9147 491.4978 C 334.0511 491.5239 334.2005 491.4984 334.3652 491.4244 C 334.5449 491.3427 334.6722 491.2277 334.7487 491.08 C 334.8249 490.9326 334.8332 490.7869 334.7688 490.6446 C 334.6625 490.4082 334.4034 490.1822 333.9964 489.9626 C 333.5845 489.7449 333.1151 489.5819 332.5822 489.4826 C 331.9325 489.3591 331.3077 489.331 330.7107 489.3968 C 330.1152 489.4651 329.4876 489.6351 328.8271 489.907 Z M 338.1953 489.5269 L 342.1179 495.0388 C 342.2341 495.2024 342.2781 495.3515 342.2546 495.4842 C 342.2426 495.5542 342.2256 495.6094 342.1962 495.6489 C 342.1653 495.6849 342.059 495.811 341.8764 496.0171 C 341.6505 496.2716 341.606 496.4916 341.7389 496.6787 C 341.826 496.8009 341.9575 496.8482 342.1318 496.8179 C 342.3112 496.7881 342.5182 496.6875 342.7611 496.5146 L 343.021 496.3294 L 347.4947 493.1461 L 347.7543 492.961 L 348.0968 492.6745 C 348.1923 492.5701 348.2589 492.4613 348.2864 492.3476 C 348.319 492.234 348.3057 492.1359 348.2439 492.0491 C 348.1109 491.862 347.8887 491.8326 347.5743 491.9624 C 347.3195 492.0676 347.1656 492.1262 347.1211 492.1435 C 347.0746 492.1586 347.0168 492.1566 346.947 492.1447 C 346.8135 492.1243 346.6871 492.0333 346.5711 491.8703 L 342.3736 485.9717 C 342.0901 485.5737 341.9059 485.2854 341.8254 485.1077 C 341.7437 484.9274 341.7046 484.742 341.7066 484.5492 C 341.7134 484.3706 341.7494 484.219 341.8177 484.0906 C 341.8914 483.9625 342.0505 483.7584 342.3056 483.48 L 341.6499 482.5585 L 341.4311 482.7144 C 340.562 483.3326 339.8746 483.9012 339.3771 484.4183 C 338.7937 485.0249 338.3351 485.6332 338.0034 486.2452 C 337.6732 486.8524 337.5085 487.3887 337.5167 487.8488 C 337.5213 488.3409 337.7477 488.8981 338.1953 489.5269 Z M 342.5496 481.9184 L 343.2053 482.8397 C 343.9176 482.4227 344.6118 482.2174 345.2939 482.2206 C 346.0663 482.2271 346.6984 482.5794 347.1914 483.2728 L 350.4518 487.8541 C 350.9099 488.4973 350.8787 489.1989 350.3531 489.9521 C 350.1989 490.1771 350.1116 490.3373 350.0841 490.4359 C 350.0586 490.5371 350.0841 490.6383 350.1575 490.7421 C 350.2446 490.8643 350.371 490.9039 350.5351 490.8671 C 350.6975 490.8271 350.9252 490.7049 351.2157 490.4983 L 353.6745 488.7485 C 353.8834 488.5997 354.0223 488.4973 354.0889 488.4395 C 354.1518 488.3834 354.2102 488.3131 354.2562 488.2402 C 354.3795 488.0441 354.4002 487.885 354.3131 487.7629 C 354.2397 487.66 354.1235 487.6121 353.9665 487.6155 C 353.9151 487.6157 353.7272 487.656 353.3973 487.7354 C 353.0228 487.832 352.6707 487.8227 352.3377 487.7084 C 352.0046 487.5953 351.7294 487.3898 351.5193 487.0947 L 348.2535 482.5063 C 347.694 481.7197 346.9833 481.2491 346.1272 481.0961 C 345.5016 480.9776 344.768 481.0479 343.9307 481.3038 C 343.5171 481.4323 343.0536 481.6358 342.5496 481.9184 Z M 362.2079 480.4172 L 354.8591 473.4264 C 354.695 473.2702 354.6232 473.1151 354.6346 472.9578 C 354.6405 472.8708 354.6584 472.8005 354.6882 472.7477 C 354.7148 472.6981 354.8225 472.5337 354.9994 472.2625 C 355.2299 471.9305 355.2503 471.678 355.0669 471.5036 C 354.9583 471.4002 354.7953 471.3962 354.5819 471.4886 C 354.426 471.5544 354.2207 471.7185 353.9687 471.983 L 353.6799 472.2868 L 349.8953 476.2653 L 349.6754 476.4966 C 349.4701 476.7123 349.3414 476.9031 349.2862 477.0763 C 349.2317 477.2443 349.2578 477.3796 349.3607 477.4771 C 349.5311 477.6395 349.757 477.6282 350.0408 477.4408 C 350.2706 477.2889 350.4087 477.1996 350.4509 477.176 C 350.4934 477.1531 350.5484 477.1417 350.6219 477.1414 C 350.7545 477.1344 350.896 477.1996 351.0411 477.3373 L 357.2994 483.2915 C 357.4449 483.4293 357.5166 483.5676 357.5183 483.702 C 357.5197 483.7737 357.5137 483.8309 357.4928 483.8749 C 357.4692 483.9163 357.3893 484.0603 357.249 484.2978 C 357.0761 484.5903 357.0761 484.8165 357.2464 484.979 C 357.3513 485.0785 357.4871 485.0977 357.6526 485.0351 C 357.823 484.971 358.0067 484.8333 358.2122 484.6173 L 358.4319 484.3862 Z M 357.6506 474.6569 L 358.3185 475.2918 C 358.6042 475.0773 358.8202 474.935 358.9654 474.8766 C 359.1116 474.8128 359.2689 474.7881 359.437 474.8034 C 359.718 474.8332 359.9986 474.978 360.2738 475.2403 L 362.281 477.1497 C 362.4772 477.3365 362.6016 477.4958 362.6603 477.6265 C 362.7156 477.7603 362.7252 477.9252 362.6824 478.1285 C 362.6379 478.41 362.4905 478.7104 362.2428 479.0307 L 362.9166 479.6719 C 364.0802 478.4494 364.8552 477.472 365.2458 476.7367 C 365.6971 475.8863 365.9125 475.0829 365.898 474.3213 C 365.8802 473.5454 365.582 472.8849 365.0057 472.3373 C 364.3639 471.7261 363.6459 471.426 362.8539 471.443 C 362.0636 471.4617 361.2297 471.7406 360.3464 472.2849 C 359.6227 472.7375 358.7241 473.5287 357.6506 474.6569 " fill="#3c2213"/>
<path transform="matrix(1,0,0,-1,0,841)" d="M 229.9881 386.6372 L 221.2285 382.0907 C 221.0329 381.9886 220.9235 381.8636 220.8912 381.7151 C 220.8722 381.6326 220.8694 381.5629 220.883 381.5062 C 220.8943 381.4532 220.9493 381.2726 221.04 380.9735 C 221.1633 380.6059 221.1131 380.3664 220.8946 380.2527 C 220.7648 380.1852 220.6123 380.2243 220.4391 380.3664 C 220.3115 380.4681 220.1652 380.6748 220.0039 380.9866 L 219.818 381.3449 L 217.3856 386.0306 L 217.2441 386.303 C 217.1123 386.5569 217.0449 386.7676 217.0409 386.943 C 217.0363 387.1137 217.0979 387.2319 217.2197 387.2954 C 217.4236 387.4005 217.6305 387.3311 217.8437 387.0825 C 218.0157 386.8807 218.1197 386.7619 218.1529 386.7293 C 218.1858 386.6961 218.2346 386.6712 218.3026 386.6522 C 218.4239 386.6105 218.5739 386.6338 218.7468 386.7231 L 226.207 390.5955 C 226.3796 390.685 226.4845 390.7945 226.5233 390.9189 C 226.544 390.9844 226.554 391.0397 226.5466 391.0859 C 226.5361 391.1304 226.5009 391.2849 226.4355 391.542 C 226.3547 391.8591 226.4168 392.0686 226.6203 392.1744 C 226.745 392.239 226.8768 392.2209 227.0137 392.1194 C 227.1549 392.0151 227.2881 391.8387 227.4205 391.5848 L 227.5614 391.3123 Z M 230.457 385.734 L 232.655 381.4994 L 230.046 380.1453 C 229.8781 380.058 229.7364 380.039 229.6199 380.0835 C 229.5017 380.1311 229.3926 380.247 229.2939 380.4372 C 229.2216 380.577 229.1913 380.6974 229.2018 380.8077 C 229.212 380.9132 229.2636 381.0305 229.3605 381.1496 C 229.5507 381.3797 229.7018 381.6354 229.818 381.9095 C 229.9357 382.1803 230.01 382.4595 230.0451 382.746 C 230.0947 383.1361 230.0837 383.5304 230.0097 383.9284 C 229.9354 384.3264 229.7925 384.7757 229.5822 385.2799 Z M 225.0037 382.9581 L 225.8654 383.4057 C 226.2189 383.0664 226.5253 382.8433 226.7887 382.7339 C 227.0469 382.6276 227.3406 382.5972 227.6663 382.6534 C 227.884 382.6933 228.0509 382.6894 228.1731 382.6344 C 228.291 382.5814 228.3934 382.4714 228.4807 382.303 C 228.5963 382.0808 228.6153 381.8945 228.5351 381.7443 C 228.4931 381.6638 228.3613 381.5629 228.1326 381.4444 L 225.2948 379.9715 C 225.0578 379.8488 224.8767 379.7997 224.7463 379.8278 C 224.6202 379.8533 224.5037 379.9653 224.4033 380.1589 C 224.3194 380.3202 224.2899 380.4642 224.3123 380.5892 C 224.335 380.7196 224.4149 380.8517 224.5479 380.9937 C 224.8288 381.299 225.004 381.6077 225.0751 381.9178 C 225.1474 382.233 225.1227 382.5791 225.0037 382.9581 Z M 236.3377 376.2981 L 228.28 370.5987 C 228.0997 370.4715 228.0087 370.3329 227.9968 370.1812 C 227.9894 370.0967 227.9962 370.0276 228.0175 369.9729 C 228.0359 369.9218 228.115 369.7503 228.2457 369.4669 C 228.4177 369.1191 228.401 368.8753 228.2 368.733 C 228.0807 368.6482 227.9239 368.6664 227.7326 368.7829 C 227.5926 368.8671 227.4199 369.0516 227.217 369.3382 L 226.9843 369.6678 L 223.9356 373.9785 L 223.7584 374.2291 C 223.5929 374.4624 223.4976 374.6619 223.4699 374.8351 C 223.4421 375.0038 223.4869 375.1291 223.5988 375.2082 C 223.7862 375.3405 224.0008 375.2997 224.2457 375.0829 C 224.4441 374.9066 224.5632 374.8025 224.6003 374.7747 C 224.6377 374.747 224.6893 374.7285 224.7593 374.7192 C 224.8849 374.6942 225.0303 374.7373 225.1894 374.8499 L 232.0517 379.7033 C 232.2108 379.8159 232.2998 379.9383 232.321 380.0667 C 232.3329 380.1348 232.3349 380.1912 232.3213 380.2357 C 232.3049 380.2785 232.2496 380.4265 232.1493 380.6722 C 232.026 380.9755 232.0588 381.1915 232.2462 381.3242 C 232.361 381.4053 232.494 381.4053 232.6433 381.3231 C 232.7975 381.2391 232.9537 381.083 233.119 380.8488 L 233.2959 380.5985 Z M 233.6477 369.9655 C 234.004 369.3277 234.258 368.8197 234.4045 368.4438 C 234.5533 368.0697 234.6506 367.7085 234.7019 367.3587 C 234.7526 366.9843 234.7311 366.6577 234.6369 366.374 C 234.5431 366.0897 234.3864 365.87 234.1687 365.7161 L 232.7491 364.712 C 232.6062 364.6108 232.5801 364.4938 232.6759 364.3586 C 232.7131 364.3064 232.7528 364.2695 232.7995 364.2486 C 232.8437 364.2301 232.9209 364.2058 233.024 364.1842 C 233.2899 364.1304 233.4813 364.0238 233.6003 363.856 C 233.6769 363.7468 233.712 363.6079 233.7069 363.4415 C 233.7021 363.2749 233.6598 363.1615 233.5779 363.1034 C 233.4376 363.0042 233.1969 362.9769 232.8605 363.0263 C 232.5243 363.0699 232.1739 363.1785 231.8145 363.3491 C 231.4783 363.5065 231.1679 363.7174 230.8808 363.9796 C 230.5964 364.2429 230.3053 364.585 230.0088 365.0043 C 229.4079 365.8538 229.1122 366.639 229.1182 367.3602 C 229.1238 368.0813 229.4357 368.6576 230.0533 369.0938 L 231.2039 369.9077 C 231.459 370.0882 231.6036 370.1959 231.6413 370.2322 C 231.8006 370.3944 231.8941 370.5939 231.925 370.8332 C 231.9537 371.1302 231.8604 371.4605 231.6464 371.8227 L 232.3786 372.3403 C 232.6581 372.0246 232.8936 371.8253 233.0898 371.7414 C 233.2627 371.6756 233.4192 371.6527 233.5572 371.6813 C 233.695 371.7043 233.8682 371.7921 234.074 371.9375 L 235.8984 373.2282 C 236.1858 373.4317 236.3454 373.663 236.3737 373.9204 C 236.4043 374.1795 236.3162 374.5423 236.107 375.0123 L 236.867 375.5497 L 237.0438 375.2991 C 237.5498 374.584 237.962 373.9615 238.2814 373.4357 C 238.7594 372.6507 239.0567 371.863 239.1721 371.0648 C 239.3456 369.9215 239.036 369.0694 238.25 368.5139 C 237.6045 368.0572 236.8752 367.9668 236.0631 368.2423 C 235.7195 368.3557 235.381 368.5363 235.0477 368.7749 C 234.7115 369.0173 234.2449 369.4139 233.6477 369.9655 Z M 246.0861 365.3345 L 238.1868 357.025 L 234.3691 360.6545 L 234.1471 360.866 C 233.9393 361.0633 233.8067 361.2402 233.746 361.4049 C 233.6865 361.5644 233.7058 361.6963 233.8004 361.7957 C 233.9586 361.9619 234.1769 361.9636 234.4592 361.7983 C 234.6883 361.6637 234.8252 361.5849 234.8668 361.5647 C 234.9091 361.5449 234.9629 361.5367 235.0338 361.5406 C 235.1619 361.5415 235.296 361.6118 235.4304 361.7527 L 241.2215 367.8449 C 241.3556 367.9858 241.4191 368.1232 241.4151 368.2534 C 241.4137 368.322 241.4049 368.3781 241.3828 368.4189 C 241.3585 368.4574 241.2751 368.5927 241.1291 368.8138 C 240.9494 369.0879 240.9401 369.3059 241.0977 369.4723 C 241.1943 369.5737 241.325 369.6001 241.4874 369.5482 C 241.655 369.4961 241.8386 369.3728 242.0461 369.1755 L 242.2684 368.9637 Z M 246.8415 364.6171 L 250.2995 361.3294 L 248.2444 359.168 C 248.1262 359.0439 248.0057 358.9877 247.8855 358.996 C 247.7619 359.0065 247.6259 359.0802 247.4768 359.2222 C 247.3512 359.3418 247.278 359.4467 247.2531 359.5377 C 247.2333 359.6275 247.2489 359.7554 247.3075 359.9167 C 247.536 360.597 247.5584 361.2591 247.375 361.9037 C 247.189 362.5515 246.7868 363.2185 246.1623 363.9027 Z M 242.5898 360.2154 L 243.2588 360.9196 C 243.6982 360.7191 244.0624 360.6103 244.3467 360.5927 C 244.6339 360.5729 244.9208 360.6401 245.2071 360.7946 C 245.4001 360.904 245.5594 360.9541 245.6923 360.9422 C 245.821 360.9309 245.9537 360.8595 246.0915 360.7291 C 246.2726 360.5562 246.3508 360.3875 246.3245 360.2186 C 246.3114 360.1287 246.2193 359.9906 246.0416 359.8036 L 243.8388 357.4865 C 243.6551 357.2935 243.4997 357.1886 243.3674 357.1722 C 243.2392 357.1551 243.0927 357.2235 242.9348 357.3734 C 242.803 357.4984 242.7284 357.6249 242.7086 357.751 C 242.6876 357.8808 242.7199 358.0322 242.7996 358.2096 C 242.9717 358.5841 243.0391 358.9308 243 359.2522 C 242.9657 359.574 242.8262 359.896 242.5898 360.2154 Z M 238.9592 356.2909 L 239.5851 356.9494 C 239.9961 356.6373 240.3567 356.4014 240.6682 356.243 C 240.9823 356.0871 241.3301 355.9666 241.7196 355.8847 C 242.1074 355.8005 242.4518 355.7696 242.752 355.7925 C 243.0471 355.8161 243.3889 355.8946 243.7713 356.0332 C 243.957 356.1055 244.1092 356.131 244.2197 356.1126 C 244.3323 356.0958 244.4511 356.0272 244.571 355.9136 C 244.7286 355.7631 244.8082 355.6242 244.8096 355.4966 C 244.8057 355.3693 244.7274 355.2231 244.5695 355.0567 L 242.5226 352.9035 Z M 255.2335 358.3074 L 254.6731 357.518 C 254.2198 357.7235 253.8329 357.819 253.5058 357.8049 C 253.1843 357.791 252.9363 357.6648 252.7688 357.4293 C 252.6063 357.1999 252.5505 356.9409 252.6026 356.6441 C 252.6559 356.3495 252.8229 355.9853 253.1083 355.5505 C 253.3037 355.254 253.7734 354.6184 254.5172 353.6442 C 254.9707 353.0557 255.3035 352.5763 255.5203 352.2047 C 255.7383 351.8357 255.9101 351.4431 256.0439 351.0249 C 256.4031 349.9203 256.3038 348.9783 255.7483 348.196 C 255.3307 347.6075 254.7414 347.2172 253.984 347.0213 C 253.2257 346.8249 252.3858 346.8416 251.4677 347.0749 C 250.9764 347.2058 250.4724 347.3881 249.952 347.631 C 249.4315 347.8742 248.9703 348.1381 248.5721 348.421 L 249.1257 349.2011 C 249.7535 348.9001 250.2496 348.7482 250.6173 348.7431 C 250.9869 348.7411 251.2763 348.8837 251.4832 349.1751 C 251.7004 349.4815 251.6973 349.888 251.4781 350.3951 C 251.3273 350.7265 250.9713 351.2642 250.4081 351.9978 C 249.7907 352.8082 249.372 353.3692 249.1534 353.6821 C 248.9352 353.9951 248.7402 354.3197 248.5695 354.6516 C 247.7928 356.1233 247.7656 357.3689 248.489 358.3877 C 248.8586 358.9087 249.3522 359.2823 249.9664 359.5065 C 250.5827 359.7333 251.2559 359.7888 251.9895 359.6717 C 253.0106 359.5127 254.0897 359.0597 255.2335 358.3074 Z M 255.4237 356.9851 L 255.9609 357.7416 C 256.3328 357.45 256.6434 357.1767 256.8883 356.9219 C 257.135 356.6696 257.4618 356.2792 257.874 355.7511 C 257.9774 355.6253 258.0701 355.5315 258.152 355.4734 C 258.277 355.3843 258.3876 355.3517 258.4882 355.3682 L 258.838 355.415 C 259.0115 355.4427 259.1748 355.4002 259.3193 355.2979 C 259.494 355.1737 259.5909 355.0382 259.6071 354.8937 C 259.626 354.7466 259.5662 354.5782 259.4319 354.3888 L 257.8232 352.1231 C 257.7305 351.9918 257.6015 351.9218 257.4363 351.9128 C 257.2682 351.906 257.1035 351.9592 256.9354 352.0789 C 256.8073 352.1699 256.71 352.2847 256.6395 352.4221 C 256.6103 352.499 256.5955 352.5763 256.5958 352.6534 C 256.5978 352.7328 256.6261 352.8425 256.6814 352.9896 C 256.7713 353.2635 256.8104 353.5835 256.8084 353.9429 C 256.8016 354.3026 256.7483 354.6604 256.6505 355.0105 C 256.4501 355.7115 256.0399 356.3683 255.4237 356.9851 Z M 248.3952 349.7202 L 247.841 348.9401 C 247.3146 349.314 246.8078 349.8347 246.3253 350.5003 C 246.1433 350.7457 246.0152 350.9138 245.9412 350.9983 C 245.8658 351.0867 245.7882 351.1596 245.7062 351.218 C 245.5778 351.3093 245.469 351.3648 245.3848 351.3793 C 245.2975 351.3951 245.1424 351.3932 244.9162 351.3745 C 244.7303 351.3555 244.5681 351.3932 244.4335 351.4893 C 244.0749 351.7435 244.0329 352.0684 244.3133 352.463 L 246.081 354.9535 C 246.172 355.0819 246.3009 355.1522 246.4665 355.1681 C 246.6315 355.1848 246.7928 355.1403 246.9504 355.0348 C 247.0955 354.939 247.1873 354.8319 247.2216 354.7123 C 247.2576 354.5957 247.2508 354.4396 247.1984 354.2406 C 247.0683 353.7434 247.0215 353.2243 247.0592 352.6846 C 247.0955 352.1429 247.2157 351.6216 247.4201 351.1219 C 247.6227 350.6054 247.9493 350.1383 248.3952 349.7202 Z M 264.8526 346.7854 L 266.6163 345.9835 L 268.1306 349.314 C 268.2607 349.6014 268.2303 349.8163 268.0447 349.9637 L 267.7297 350.1984 C 267.4826 350.3863 267.406 350.5876 267.503 350.8019 C 267.624 351.0675 267.9489 351.0802 268.4744 350.8413 L 268.7539 350.7146 L 273.549 348.5341 L 273.8395 348.4023 C 274.3795 348.1569 274.5907 347.9006 274.4697 347.6341 C 274.375 347.4258 274.1689 347.3527 273.8477 347.4164 C 273.5878 347.4692 273.4316 347.4955 273.3866 347.5037 C 273.3401 347.5089 273.2854 347.4964 273.2213 347.4717 C 273.0986 347.4266 272.9954 347.3164 272.9149 347.1389 L 269.4518 339.5214 C 269.3234 339.2396 269.3531 339.0216 269.5411 338.8603 L 269.8486 338.6203 C 270.1091 338.423 270.1882 338.2169 270.091 338.0031 C 269.9677 337.7322 269.6346 337.72 269.0943 337.9652 L 268.8043 338.0973 L 264.0087 340.2774 L 263.7077 340.4146 C 263.1969 340.6465 263.001 340.899 263.1243 341.1706 C 263.2215 341.384 263.425 341.4614 263.7306 341.4013 L 264.1173 341.3259 C 264.3483 341.2777 264.532 341.3991 264.6669 341.6961 L 266.275 345.2326 L 264.511 346.0346 Z M 261.3631 341.4801 L 256.5567 343.6654 L 256.2772 343.7923 C 256.0164 343.9108 255.8336 344.0353 255.7219 344.1708 C 255.6133 344.3017 255.5887 344.433 255.6454 344.558 C 255.7403 344.7669 255.9464 344.8395 256.2676 344.7751 C 256.5275 344.7232 256.6826 344.6938 256.7293 344.6884 C 256.7755 344.6833 256.8288 344.6935 256.8943 344.7201 C 257.0156 344.7624 257.1191 344.8732 257.1999 345.0504 L 260.678 352.7019 C 260.7588 352.8797 260.7744 353.0302 260.7276 353.1521 C 260.7038 353.2161 260.6774 353.2657 260.6428 353.2975 C 260.6071 353.3264 260.4841 353.4265 260.274 353.5875 C 260.0144 353.7879 259.9342 353.9908 260.0286 354.1995 C 260.087 354.3276 260.2018 354.3948 260.3721 354.399 C 260.5476 354.4047 260.7616 354.3477 261.0221 354.2292 L 261.3016 354.1022 L 266.108 351.9173 L 266.387 351.7906 C 266.898 351.5579 267.0948 351.3081 266.9737 351.0422 C 266.8762 350.8282 266.6778 350.7523 266.3736 350.8149 L 266.0051 350.8909 C 265.7721 350.934 265.593 350.8138 265.4629 350.5272 L 261.9842 342.8751 C 261.8546 342.5907 261.8807 342.3745 262.0675 342.2299 L 262.3671 342.0026 C 262.6143 341.8149 262.6875 341.6145 262.5905 341.4008 C 262.4706 341.1369 262.1531 341.1213 261.6423 341.3531 Z M 284.622 346.1397 L 289.3173 345.3177 L 290.8517 335.0293 C 290.8811 334.8471 290.9268 334.6846 290.9792 334.5386 C 291.0322 334.4219 291.172 334.3073 291.399 334.2008 C 291.5909 334.103 291.7196 334.0193 291.7882 333.9437 C 291.8534 333.8711 291.8795 333.7824 291.8605 333.6746 C 291.8106 333.3898 291.4826 333.2991 290.8786 333.4051 L 285.0656 334.4224 C 284.8348 334.463 284.6511 334.5355 284.5264 334.6424 C 284.4011 334.7459 284.3484 334.8655 284.3714 334.9979 C 284.3906 335.1078 284.4371 335.1844 284.506 335.2303 C 284.5791 335.2725 284.7311 335.3187 284.9641 335.3627 C 285.1288 335.3919 285.2467 335.4318 285.3221 335.4888 C 285.3933 335.543 285.44 335.622 285.457 335.7213 C 285.4735 335.8142 285.4757 335.9013 285.4647 335.9752 L 285.3094 337.2418 L 282.0611 337.8107 L 282.5467 338.7379 L 285.1551 338.2809 L 284.1891 345.378 Z M 283.4493 344.1728 L 283.7421 342.3557 L 280.7512 337.377 C 280.6648 337.2318 280.6081 337.0938 280.5846 336.9609 C 280.5236 336.6139 280.711 336.325 281.1424 336.0986 L 281.5245 335.8945 C 281.7692 335.7675 281.8718 335.607 281.8378 335.4129 C 281.7899 335.1385 281.4792 335.0509 280.9108 335.1504 L 277.9489 335.6685 C 277.662 335.719 277.4432 335.8012 277.291 335.9149 C 277.1393 336.0317 277.0761 336.1618 277.1022 336.3111 C 277.1306 336.4722 277.3242 336.5719 277.6847 336.6196 C 278.0198 336.6624 278.2704 336.7089 278.4356 336.7641 C 278.6006 336.8169 278.7667 336.901 278.9303 337.0153 C 279.1882 337.2024 279.4198 337.47 279.6248 337.8212 Z M 299.2541 344.9957 L 305.7151 337.3716 L 305.7962 333.671 L 302.5681 333.6004 L 294.3184 343.2487 C 294.1398 343.4596 293.9958 343.603 293.885 343.6863 C 293.7702 343.7668 293.6276 343.8241 293.453 343.8604 L 293.0029 343.9681 C 292.8807 343.9939 292.7871 344.0435 292.7129 344.1138 C 292.6426 344.1832 292.6043 344.2654 292.6023 344.3545 C 292.6003 344.4489 292.6346 344.539 292.7058 344.6203 C 292.7724 344.7054 292.8679 344.7643 292.9844 344.7984 C 293.1208 344.8414 293.4836 344.8698 294.0763 344.8826 Z M 294.3757 341.932 L 295.6669 340.4815 L 295.7652 335.9874 C 295.7734 335.5951 295.8732 335.2768 296.0646 335.0285 C 296.2517 334.7802 296.5507 334.5806 296.9538 334.4258 L 297.3124 334.2909 C 297.5196 334.2124 297.6236 334.0882 297.627 333.9196 C 297.6299 333.7906 297.5596 333.6829 297.4122 333.5967 C 297.2843 333.5219 297.0272 333.4791 296.6355 333.4706 L 293.8995 333.4107 C 293.1769 333.3949 292.8146 333.5335 292.8087 333.8223 C 292.8064 333.923 292.841 334.0037 292.9161 334.0655 C 292.9918 334.1248 293.1514 334.2081 293.4034 334.3141 C 294.1554 334.6288 294.5234 335.1756 294.5061 335.9599 Z M 305.6862 338.7115 L 304.3945 340.1853 L 304.3434 342.5111 C 304.3329 342.9831 304.2283 343.3419 304.0291 343.5868 C 303.834 343.8317 303.4902 344.0392 302.9981 344.209 C 302.8317 344.2632 302.7169 344.3204 302.6511 344.3822 C 302.5891 344.4469 302.5553 344.5291 302.5528 344.6291 C 302.5497 344.7814 302.616 344.8945 302.7512 344.9662 C 302.887 345.0404 303.1084 345.0798 303.4111 345.0864 L 306.373 345.1513 C 306.7724 345.1601 307.0358 345.1201 307.1631 345.0336 C 307.298 344.9477 307.3691 344.8409 307.3717 344.7176 C 307.3742 344.5999 307.3399 344.5104 307.2645 344.4511 C 307.1931 344.3899 307.0134 344.3054 306.733 344.1991 C 306.3206 344.0384 306.0113 343.7966 305.8078 343.48 C 305.6638 343.2447 305.5938 342.9303 305.6026 342.5386 Z M 313.6895 346.5865 L 316.2677 335.4148 L 311.135 334.2305 L 310.8362 334.1614 C 310.5573 334.0973 310.3362 334.0843 310.1658 334.1242 C 309.9991 334.1625 309.9002 334.2515 309.8693 334.3853 C 309.818 334.6087 309.9368 334.7921 310.2307 334.9361 C 310.4688 335.0529 310.61 335.1237 310.6502 335.1475 C 310.6902 335.1713 310.7265 335.2122 310.7619 335.2737 C 310.8322 335.3805 310.8475 335.5313 310.8036 335.7213 L 308.9137 343.9111 C 308.8698 344.1008 308.7901 344.2297 308.6793 344.298 C 308.6212 344.3349 308.5696 344.3581 308.5234 344.3624 C 308.4775 344.3632 308.3193 344.3681 308.0537 344.3683 C 307.7266 344.3698 307.5392 344.4817 307.4873 344.7054 C 307.4559 344.8423 307.506 344.9653 307.6387 345.0728 C 307.7751 345.183 307.9791 345.2683 308.2578 345.333 L 308.5569 345.4019 Z M 318.0407 338.2877 L 316.55 344.7473 C 316.4579 345.1465 316.3065 345.4441 316.0908 345.6414 C 315.9533 345.7715 315.8056 345.8546 315.6437 345.8908 C 315.4816 345.93 315.2361 345.9351 314.9101 345.9127 L 314.7004 346.8197 C 315.1057 346.9133 315.4541 346.9822 315.7464 347.0258 C 316.7354 347.1746 317.7519 347.0975 318.782 346.7974 C 319.801 346.5094 320.6231 346.017 321.2433 345.3219 C 321.882 344.6198 322.3171 343.7762 322.5436 342.794 C 322.8007 341.68 322.742 340.6258 322.3633 339.6266 C 321.988 338.6319 321.3193 337.7599 320.3603 337.0153 C 319.8926 336.6544 319.447 336.3778 319.0144 336.1873 C 318.5858 335.9974 318.0061 335.8162 317.2791 335.6487 L 317.0752 336.5306 C 317.3831 336.666 317.5954 336.7709 317.7099 336.8506 C 317.8278 336.9305 317.9163 337.0306 317.9871 337.1559 C 318.0739 337.3019 318.1209 337.4566 318.1297 337.6145 C 318.138 337.7752 318.1071 338.0006 318.0407 338.2877 Z M 333.5896 353.8142 L 338.1358 345.0549 C 338.2376 344.8587 338.3623 344.7493 338.5108 344.7173 C 338.5936 344.6986 338.6633 344.6957 338.7197 344.7094 C 338.7733 344.7207 338.9539 344.776 339.2527 344.8664 C 339.6209 344.9894 339.8604 344.9395 339.9738 344.721 C 340.041 344.5909 340.0019 344.4384 339.8604 344.2652 C 339.7581 344.1373 339.548 343.9899 339.2291 343.8244 L 338.8816 343.6441 L 334.1959 341.212 L 333.8518 341.0334 C 333.5437 340.8732 333.2937 340.7854 333.1003 340.7726 C 332.9082 340.7564 332.778 340.8148 332.708 340.9498 C 332.5946 341.1686 332.6916 341.3934 333.0009 341.6216 C 333.2469 341.8135 333.3886 341.9257 333.4317 341.9646 C 333.4757 342.0031 333.5066 342.0578 333.5312 342.1324 C 333.5907 342.273 333.5729 342.438 333.4714 342.6335 L 328.9246 351.3932 Z M 337.2219 355.6998 L 338.8045 352.6515 C 338.8782 352.5092 338.8802 352.3649 338.8107 352.2189 C 338.7421 352.0704 338.6143 351.949 338.4349 351.8561 C 338.2594 351.7651 338.095 351.7311 337.9385 351.7532 C 337.7775 351.7733 337.6466 351.8504 337.5371 351.9743 L 337.1981 352.3728 C 336.8523 352.777 336.4441 353.0721 335.969 353.2516 C 335.6745 353.3635 335.3318 353.4021 334.9406 353.3666 L 334.4706 354.2717 Z M 325.3136 349.5192 L 328.0652 350.9473 L 328.5349 350.0422 C 328.2772 349.7409 328.1077 349.4361 328.0368 349.1351 C 327.9101 348.643 327.9166 348.1396 328.0516 347.6254 L 328.1794 347.1174 C 328.2208 346.9581 328.2049 346.8042 328.1289 346.6619 C 328.0567 346.521 327.9342 346.4059 327.7587 346.3149 C 327.5799 346.2216 327.4064 346.1868 327.246 346.2163 C 327.0861 346.2435 326.9696 346.3279 326.8956 346.4702 Z M 341.0399 358.3261 L 344.9319 361.0789 L 353.3134 354.918 C 353.4639 354.8109 353.611 354.7287 353.751 354.6629 C 353.8718 354.6184 354.0515 354.6369 354.2873 354.7225 C 354.492 354.7905 354.6417 354.8225 354.744 354.818 C 354.8415 354.8129 354.9226 354.7687 354.9855 354.6797 C 355.1525 354.4432 354.9861 354.1467 354.4852 353.7927 L 349.6671 350.3852 C 349.4758 350.25 349.2947 350.1709 349.1311 350.1573 C 348.9695 350.1408 348.8474 350.1882 348.7697 350.2979 C 348.7051 350.3889 348.6835 350.4759 348.7 350.5569 C 348.7215 350.6389 348.7952 350.7792 348.9287 350.9751 C 349.0243 351.1125 349.0784 351.2251 349.0909 351.318 C 349.1025 351.4071 349.0792 351.4958 349.0214 351.5774 C 348.9667 351.6551 348.9072 351.7177 348.8465 351.7622 L 347.8385 352.5446 L 345.1456 350.6403 L 344.8307 351.6384 L 346.9924 353.1674 L 341.276 357.4826 Z M 341.6097 356.108 L 343.1052 355.036 L 344.5311 349.4052 C 344.5724 349.242 344.6308 349.1036 344.7088 348.9939 C 344.912 348.7065 345.2488 348.6356 345.7137 348.7822 L 346.1272 348.9097 C 346.3897 348.9934 346.576 348.9537 346.6902 348.7924 C 346.8506 348.565 346.6945 348.2824 346.2233 347.9494 L 343.7683 346.2129 C 343.531 346.045 343.3181 345.9472 343.1302 345.9197 C 342.9403 345.8942 342.8036 345.9413 342.7157 346.0652 C 342.6214 346.1987 342.6868 346.4065 342.9079 346.6959 C 343.1132 346.9637 343.2566 347.1744 343.334 347.3306 C 343.4128 347.4848 343.4703 347.6619 343.5041 347.8584 C 343.5534 348.1736 343.5265 348.5259 343.4216 348.9194 Z M 351.2707 367.0138 L 351.9729 366.3465 C 351.705 365.927 351.5553 365.5579 351.5224 365.2322 C 351.4904 364.9119 351.58 364.6483 351.7897 364.4493 C 351.9933 364.2557 352.2419 364.1632 352.5429 364.1729 C 352.842 364.1837 353.2266 364.297 353.6974 364.5179 C 354.0186 364.6687 354.7148 365.0431 355.7849 365.6409 C 356.4323 366.006 356.9533 366.2677 357.3519 366.4293 C 357.7487 366.5923 358.1614 366.7068 358.5946 366.7793 C 359.7392 366.9778 360.6571 366.7459 361.3527 366.0846 C 361.876 365.5871 362.1784 364.9484 362.2646 364.1709 C 362.3513 363.3922 362.215 362.5637 361.8533 361.6877 C 361.654 361.22 361.402 360.7469 361.0871 360.2665 C 360.7724 359.786 360.4453 359.367 360.1091 359.0133 L 359.4152 359.672 C 359.803 360.2509 360.0241 360.7203 360.0811 361.0837 C 360.1361 361.4491 360.036 361.7558 359.7766 362.0024 C 359.5042 362.2606 359.1017 362.3151 358.5685 362.1705 C 358.2187 362.0684 357.6365 361.7921 356.83 361.3397 C 355.9394 360.8436 355.3251 360.5088 354.9841 360.337 C 354.6434 360.1655 354.2941 360.019 353.9415 359.8974 C 352.374 359.3378 351.1375 359.4881 350.2321 360.3489 C 349.7692 360.7892 349.469 361.3306 349.3349 361.9706 C 349.198 362.613 349.2386 363.2871 349.4588 363.9969 C 349.7615 364.9844 350.3633 365.9885 351.2707 367.0138 Z M 352.6072 367.0138 L 351.9346 367.6533 C 352.2764 367.9792 352.5911 368.2483 352.878 368.4543 C 353.1628 368.6627 353.5957 368.9306 354.1768 369.2636 C 354.3165 369.3481 354.422 369.426 354.4914 369.4992 C 354.5969 369.6103 354.6454 369.7149 354.6434 369.8169 L 354.6468 370.1699 C 354.6442 370.3453 354.7091 370.5009 354.8313 370.6296 C 354.9787 370.785 355.1267 370.8612 355.2724 370.857 C 355.4209 370.8544 355.5788 370.7717 355.7472 370.6118 L 357.7609 368.6973 C 357.8771 368.5864 357.9284 368.4487 357.914 368.2843 C 357.8973 368.1164 357.8204 367.9614 357.6787 367.8117 C 357.5701 367.6978 357.4426 367.6184 357.2966 367.5677 C 357.2161 367.5501 357.1376 367.5464 357.0613 367.5574 C 356.9831 367.5711 356.8782 367.6144 356.7404 367.6904 C 356.4825 367.818 356.1715 367.9019 355.8152 367.9515 C 355.458 367.996 355.0966 367.9943 354.7361 367.9469 C 354.0135 367.8486 353.3054 367.5356 352.6072 367.0138 Z M 358.7978 359.0229 L 359.4912 358.3636 C 359.0461 357.8956 358.4588 357.4684 357.7311 357.0851 C 357.4621 356.9397 357.2776 356.8368 357.1838 356.7759 C 357.0851 356.7138 357.0021 356.6475 356.9329 356.5743 C 356.8243 356.4604 356.7532 356.3606 356.7274 356.2792 C 356.6991 356.1951 356.6789 356.0414 356.6653 355.8146 C 356.6574 355.6276 356.5973 355.4731 356.4833 355.3532 C 356.1803 355.0346 355.8532 355.0394 355.502 355.3724 L 353.2887 357.4772 C 353.1745 357.5854 353.1231 357.7229 353.1308 357.8888 C 353.1379 358.0546 353.2051 358.2079 353.3318 358.3494 C 353.4471 358.4789 353.5665 358.5549 353.6892 358.5716 C 353.8097 358.5903 353.9639 358.5614 354.1533 358.4818 C 354.6269 358.2816 355.1338 358.1623 355.6735 358.1223 C 356.2149 358.0809 356.7478 358.1257 357.2717 358.2573 C 357.8117 358.3843 358.3205 358.6414 358.7978 359.0229 Z M 361.2013 378.6267 L 369.2489 372.9141 C 369.4289 372.786 369.5899 372.746 369.737 372.7848 C 369.8186 372.8064 369.8821 372.8356 369.9261 372.8733 C 369.9686 372.9078 370.1038 373.0397 370.3283 373.2568 C 370.5993 373.5346 370.8351 373.5998 371.0361 373.4572 C 371.1555 373.3722 371.1903 373.2185 371.1436 372.9997 C 371.1107 372.8395 370.9919 372.6125 370.7838 372.3194 L 370.5568 372.0002 L 367.501 367.6946 L 367.2765 367.3789 C 367.0753 367.0957 366.8936 366.9035 366.7275 366.8031 C 366.5642 366.7017 366.4216 366.6937 366.2977 366.7819 C 366.0968 366.9245 366.0803 367.1685 366.251 367.5127 C 366.3819 367.7961 366.4568 367.9608 366.4774 368.0152 C 366.499 368.07 366.501 368.1326 366.4891 368.21 C 366.4777 368.3616 366.3867 368.5005 366.2067 368.6284 L 358.1589 374.341 Z M 363.5705 381.9643 L 366.3711 379.976 C 366.5021 379.8831 366.5696 379.7561 366.5744 379.5945 C 366.5818 379.4306 366.5231 379.2643 366.406 379.0996 C 366.2918 378.9386 366.1611 378.8334 366.0114 378.7812 C 365.8595 378.7257 365.7078 378.7345 365.5536 378.7946 L 365.07 378.9944 C 364.5771 379.1957 364.0793 379.2716 363.5751 379.2141 C 363.2615 379.1786 362.9392 379.0565 362.6076 378.8459 L 361.7762 379.4366 Z M 355.8039 371.0237 L 357.5985 373.5516 L 358.4299 372.9609 C 358.3386 372.5751 358.327 372.227 358.4015 371.9268 C 358.5138 371.4313 358.7496 370.9862 359.1045 370.5911 L 359.4504 370.1974 C 359.5603 370.0743 359.6162 369.9303 359.6139 369.769 C 359.6142 369.6109 359.5578 369.4527 359.4433 369.2911 C 359.3265 369.127 359.1887 369.0162 359.0323 368.9694 C 358.8778 368.9201 358.7355 368.9425 358.6045 369.0351 Z M 373.4935 388.1557 L 376.8214 386.6426 C 377.0218 386.5516 377.1882 386.5428 377.3251 386.6085 C 377.4013 386.6454 377.4577 386.6856 377.494 386.7316 C 377.5292 386.7729 377.6369 386.9283 377.8163 387.1837 C 378.0295 387.508 378.2489 387.6163 378.4734 387.5145 C 378.6191 387.4482 378.6863 387.2976 378.6761 387.0675 C 378.6738 386.9308 378.5978 386.6953 378.4456 386.3608 L 378.2786 385.9934 L 376.0937 381.187 L 375.9335 380.8344 C 375.7864 380.5109 375.6515 380.2972 375.533 380.1957 C 375.3672 380.0455 375.2181 380.0018 375.0851 380.0625 C 374.8612 380.1643 374.7986 380.4009 374.9012 380.7711 C 374.9757 381.0745 375.0182 381.2505 375.0284 381.3077 C 375.0389 381.3653 375.029 381.4271 375.0029 381.5014 C 374.963 381.6482 374.8473 381.767 374.6463 381.8582 L 372.0671 383.0309 L 365.512 382.3262 C 365.2673 382.3002 365.053 382.2024 364.8719 382.0323 C 364.6973 381.8764 364.572 381.7874 364.4972 381.7548 C 364.4201 381.723 364.3379 381.7293 364.2463 381.7709 C 363.9804 381.8923 363.9728 382.2282 364.2233 382.7789 L 366.6223 388.0562 C 366.7479 388.3314 366.8581 388.5117 366.9508 388.5982 C 367.1161 388.7408 367.2629 388.7802 367.3962 388.7195 C 367.5577 388.6461 367.6388 388.4851 367.6365 388.2379 L 367.636 387.87 C 367.638 387.7226 367.6952 387.6259 367.8069 387.5749 C 367.9353 387.5168 368.0787 387.5 368.2363 387.5219 Z M 372.956 388.9052 L 371.6819 388.7529 L 370.3955 390.6995 C 370.2832 390.8611 370.0964 391.0037 369.8303 391.125 C 369.5329 391.2602 369.218 391.1284 368.8829 390.7307 C 368.6981 390.5178 368.5646 390.3829 368.4747 390.3313 C 368.3866 390.2822 368.2891 390.282 368.174 390.3344 C 368.0388 390.3956 367.96 390.507 367.9481 390.6677 C 367.9415 390.7772 367.956 390.8857 367.9886 390.9991 C 368.0218 391.1134 368.0974 391.3004 368.2179 391.5655 L 369.4258 394.2218 C 369.6562 394.7287 369.915 394.9172 370.1991 394.7885 C 370.3037 394.7409 370.3669 394.6723 370.3895 394.5776 C 370.417 394.4852 370.4142 394.3264 370.3878 394.1033 C 370.3399 393.6997 370.3385 393.3989 370.3819 393.1968 C 370.4479 392.9054 370.5514 392.6418 370.6946 392.4031 L 370.9723 391.9754 Z " fill="#3c2213"/>
<path transform="matrix(1,0,0,-1,0,841)" d="M 214.8732 414.4309 C 212.1973 415.3637 210.1436 418.0431 209.7125 421.4801 C 209.2269 425.3539 211.1349 430.4395 215.6003 430.6774 C 219.2726 421.89 212.108 422.0184 214.8732 414.4309 " fill="#321511" fill-rule="evenodd"/>
<path transform="matrix(1,0,0,-1,0,841)" d="M 217.0352 430.4662 C 219.7111 429.5333 221.7648 426.8543 222.196 423.417 C 222.6815 419.5431 220.7735 414.4572 216.3081 414.2197 C 213.4497 421.8185 220.5533 421.7973 217.0352 430.4662 " fill="#321511" fill-rule="evenodd"/>
<path transform="matrix(1,0,0,-1,0,841)" d="M 381.6011 414.5749 C 384.1733 415.7637 385.956 418.6307 386.0495 422.0935 C 386.1553 425.9957 383.7603 430.8712 379.2932 430.6728 C 376.4954 421.5688 383.6132 422.3957 381.6011 414.5749 " fill="#321511" fill-rule="evenodd"/>
<path transform="matrix(1,0,0,-1,0,841)" d="M 377.8855 430.3225 C 375.3133 429.133 373.5309 426.2664 373.4371 422.8036 C 373.3313 418.9014 375.7263 414.0258 380.1937 414.2239 C 382.2973 422.066 375.2297 421.3517 377.8855 430.3225 " fill="#321511" fill-rule="evenodd"/>
<path transform="matrix(1,0,0,-1,0,841)" d="M 217.3935 438.2904 C 218.4715 438.2904 219.3454 437.4162 219.3454 436.3381 C 219.3454 435.2607 218.4715 434.3868 217.3935 434.3868 C 216.3155 434.3868 215.4419 435.2607 215.4419 436.3381 C 215.4419 437.4162 216.3155 438.2904 217.3935 438.2904 " fill="#c4996c" fill-rule="evenodd"/>
<path transform="matrix(1,0,0,-1,0,841)" d="M 378.4297 438.2904 C 379.5077 438.2904 380.3817 437.4162 380.3817 436.3381 C 380.3817 435.2607 379.5077 434.3868 378.4297 434.3868 C 377.352 434.3868 376.4781 435.2607 376.4781 436.3381 C 376.4781 437.4162 377.352 438.2904 378.4297 438.2904 " fill="#c4996c" fill-rule="evenodd"/>
<path transform="matrix(1,0,0,-1,0,841)" d="M 217.1228 409.5026 C 218.2008 409.5026 219.0747 408.6283 219.0747 407.5509 C 219.0747 406.4729 218.2008 405.599 217.1228 405.599 C 216.0448 405.599 215.1709 406.4729 215.1709 407.5509 C 215.1709 408.6283 216.0448 409.5026 217.1228 409.5026 " fill="#c4996c" fill-rule="evenodd"/>
<path transform="matrix(1,0,0,-1,0,841)" d="M 378.805 409.5026 C 379.8831 409.5026 380.757 408.6283 380.757 407.5509 C 380.757 406.4729 379.8831 405.599 378.805 405.599 C 377.727 405.599 376.8531 406.4729 376.8531 407.5509 C 376.8531 408.6283 377.727 409.5026 378.805 409.5026 " fill="#c4996c" fill-rule="evenodd"/>
</g>
</g>
</svg>
